<mxfile host="app.diagrams.net" modified="2021-09-21T20:24:18.065Z" agent="5.0 (Windows)" etag="x3KH9apldaCE2qpp4DRb" version="15.2.9" type="github">
  <diagram id="7hQzBCkBdU_H9w4rOh0N" name="第 1 页">
    <mxGraphModel dx="1409" dy="718" grid="1" gridSize="10" guides="1" tooltips="1" connect="1" arrows="1" fold="1" page="1" pageScale="1" pageWidth="5000" pageHeight="1000" math="0" shadow="0">
      <root>
        <mxCell id="0" />
        <mxCell id="1" parent="0" />
        <mxCell id="reUhdALE0_eWzsfr5-1L-2" value="左侧1号超声波数据" style="swimlane;fontStyle=0;childLayout=stackLayout;horizontal=1;startSize=35;horizontalStack=0;resizeParent=1;resizeParentMax=0;resizeLast=0;collapsible=1;marginBottom=0;fontSize=18;fillColor=#A0522D;fontColor=#FFFFFF;" vertex="1" parent="1">
          <mxGeometry x="320" y="1120" width="480" height="295" as="geometry" />
        </mxCell>
        <mxCell id="reUhdALE0_eWzsfr5-1L-3" value="LeftRadarCQueueId1[250].x：循环队列/结构体数组成员，x为车辆在全局坐标系下X方向的值" style="text;strokeColor=none;fillColor=none;align=left;verticalAlign=top;spacingLeft=4;spacingRight=4;overflow=hidden;rotatable=0;points=[[0,0.5],[1,0.5]];portConstraint=eastwest;" vertex="1" parent="reUhdALE0_eWzsfr5-1L-2">
          <mxGeometry y="35" width="480" height="26" as="geometry" />
        </mxCell>
        <mxCell id="reUhdALE0_eWzsfr5-1L-4" value="LeftRadarCQueueId1[250].y：循环队列/结构体数组成员，y为车辆在全局坐标系下Y方向的值" style="text;strokeColor=none;fillColor=none;align=left;verticalAlign=top;spacingLeft=4;spacingRight=4;overflow=hidden;rotatable=0;points=[[0,0.5],[1,0.5]];portConstraint=eastwest;" vertex="1" parent="reUhdALE0_eWzsfr5-1L-2">
          <mxGeometry y="61" width="480" height="26" as="geometry" />
        </mxCell>
        <mxCell id="reUhdALE0_eWzsfr5-1L-5" value="LeftRadarCQueueId1[250].q：循环队列/结构体数组成员，q为车辆在全局坐标系下的航向角" style="text;strokeColor=none;fillColor=none;align=left;verticalAlign=top;spacingLeft=4;spacingRight=4;overflow=hidden;rotatable=0;points=[[0,0.5],[1,0.5]];portConstraint=eastwest;" vertex="1" parent="reUhdALE0_eWzsfr5-1L-2">
          <mxGeometry y="87" width="480" height="26" as="geometry" />
        </mxCell>
        <mxCell id="reUhdALE0_eWzsfr5-1L-7" value="LeftRadarCQueueId1[250].dim：循环队列/结构体数组成员，dim为超声波数据" style="text;strokeColor=none;fillColor=none;align=left;verticalAlign=top;spacingLeft=4;spacingRight=4;overflow=hidden;rotatable=0;points=[[0,0.5],[1,0.5]];portConstraint=eastwest;" vertex="1" parent="reUhdALE0_eWzsfr5-1L-2">
          <mxGeometry y="113" width="480" height="26" as="geometry" />
        </mxCell>
        <mxCell id="reUhdALE0_eWzsfr5-1L-11" value="front：循环队列队头(头删)" style="text;strokeColor=none;fillColor=none;align=left;verticalAlign=top;spacingLeft=4;spacingRight=4;overflow=hidden;rotatable=0;points=[[0,0.5],[1,0.5]];portConstraint=eastwest;" vertex="1" parent="reUhdALE0_eWzsfr5-1L-2">
          <mxGeometry y="139" width="480" height="26" as="geometry" />
        </mxCell>
        <mxCell id="reUhdALE0_eWzsfr5-1L-10" value="rear：循环队列队尾(尾添)" style="text;strokeColor=none;fillColor=none;align=left;verticalAlign=top;spacingLeft=4;spacingRight=4;overflow=hidden;rotatable=0;points=[[0,0.5],[1,0.5]];portConstraint=eastwest;" vertex="1" parent="reUhdALE0_eWzsfr5-1L-2">
          <mxGeometry y="165" width="480" height="26" as="geometry" />
        </mxCell>
        <mxCell id="reUhdALE0_eWzsfr5-1L-9" value="fFront：车辆前进/静止时采集到数据的队头" style="text;strokeColor=none;fillColor=none;align=left;verticalAlign=top;spacingLeft=4;spacingRight=4;overflow=hidden;rotatable=0;points=[[0,0.5],[1,0.5]];portConstraint=eastwest;" vertex="1" parent="reUhdALE0_eWzsfr5-1L-2">
          <mxGeometry y="191" width="480" height="26" as="geometry" />
        </mxCell>
        <mxCell id="reUhdALE0_eWzsfr5-1L-12" value="fRront：车辆前进/静止时采集到数据的队尾" style="text;strokeColor=none;fillColor=none;align=left;verticalAlign=top;spacingLeft=4;spacingRight=4;overflow=hidden;rotatable=0;points=[[0,0.5],[1,0.5]];portConstraint=eastwest;" vertex="1" parent="reUhdALE0_eWzsfr5-1L-2">
          <mxGeometry y="217" width="480" height="26" as="geometry" />
        </mxCell>
        <mxCell id="reUhdALE0_eWzsfr5-1L-13" value="rFront：车辆后退时采集到数据的队头" style="text;strokeColor=none;fillColor=none;align=left;verticalAlign=top;spacingLeft=4;spacingRight=4;overflow=hidden;rotatable=0;points=[[0,0.5],[1,0.5]];portConstraint=eastwest;" vertex="1" parent="reUhdALE0_eWzsfr5-1L-2">
          <mxGeometry y="243" width="480" height="26" as="geometry" />
        </mxCell>
        <mxCell id="reUhdALE0_eWzsfr5-1L-8" value="rRront：车辆后退时采集到数据的队头" style="text;strokeColor=none;fillColor=none;align=left;verticalAlign=top;spacingLeft=4;spacingRight=4;overflow=hidden;rotatable=0;points=[[0,0.5],[1,0.5]];portConstraint=eastwest;" vertex="1" parent="reUhdALE0_eWzsfr5-1L-2">
          <mxGeometry y="269" width="480" height="26" as="geometry" />
        </mxCell>
        <mxCell id="reUhdALE0_eWzsfr5-1L-14" value="左侧2号超声波数据" style="swimlane;fontStyle=0;childLayout=stackLayout;horizontal=1;startSize=35;horizontalStack=0;resizeParent=1;resizeParentMax=0;resizeLast=0;collapsible=1;marginBottom=0;fontSize=18;fillColor=#A0522D;fontColor=#FFFFFF;" vertex="1" parent="1">
          <mxGeometry x="320" y="1460" width="480" height="295" as="geometry" />
        </mxCell>
        <mxCell id="reUhdALE0_eWzsfr5-1L-15" value="LeftRadarCQueueId2[250].x：循环队列/结构体数组成员，x为车辆在全局坐标系下X方向的值" style="text;strokeColor=none;fillColor=none;align=left;verticalAlign=top;spacingLeft=4;spacingRight=4;overflow=hidden;rotatable=0;points=[[0,0.5],[1,0.5]];portConstraint=eastwest;" vertex="1" parent="reUhdALE0_eWzsfr5-1L-14">
          <mxGeometry y="35" width="480" height="26" as="geometry" />
        </mxCell>
        <mxCell id="reUhdALE0_eWzsfr5-1L-16" value="LeftRadarCQueueId2[250].y：循环队列/结构体数组成员，y为车辆在全局坐标系下Y方向的值" style="text;strokeColor=none;fillColor=none;align=left;verticalAlign=top;spacingLeft=4;spacingRight=4;overflow=hidden;rotatable=0;points=[[0,0.5],[1,0.5]];portConstraint=eastwest;" vertex="1" parent="reUhdALE0_eWzsfr5-1L-14">
          <mxGeometry y="61" width="480" height="26" as="geometry" />
        </mxCell>
        <mxCell id="reUhdALE0_eWzsfr5-1L-17" value="LeftRadarCQueueId2[250].q：循环队列/结构体数组成员，q为车辆在全局坐标系下的航向角" style="text;strokeColor=none;fillColor=none;align=left;verticalAlign=top;spacingLeft=4;spacingRight=4;overflow=hidden;rotatable=0;points=[[0,0.5],[1,0.5]];portConstraint=eastwest;" vertex="1" parent="reUhdALE0_eWzsfr5-1L-14">
          <mxGeometry y="87" width="480" height="26" as="geometry" />
        </mxCell>
        <mxCell id="reUhdALE0_eWzsfr5-1L-18" value="LeftRadarCQueueId2[250].dim：循环队列/结构体数组成员，dim为超声波数据" style="text;strokeColor=none;fillColor=none;align=left;verticalAlign=top;spacingLeft=4;spacingRight=4;overflow=hidden;rotatable=0;points=[[0,0.5],[1,0.5]];portConstraint=eastwest;" vertex="1" parent="reUhdALE0_eWzsfr5-1L-14">
          <mxGeometry y="113" width="480" height="26" as="geometry" />
        </mxCell>
        <mxCell id="reUhdALE0_eWzsfr5-1L-19" value="front：循环队列队头(头删)" style="text;strokeColor=none;fillColor=none;align=left;verticalAlign=top;spacingLeft=4;spacingRight=4;overflow=hidden;rotatable=0;points=[[0,0.5],[1,0.5]];portConstraint=eastwest;" vertex="1" parent="reUhdALE0_eWzsfr5-1L-14">
          <mxGeometry y="139" width="480" height="26" as="geometry" />
        </mxCell>
        <mxCell id="reUhdALE0_eWzsfr5-1L-20" value="rear：循环队列队尾(尾添)" style="text;strokeColor=none;fillColor=none;align=left;verticalAlign=top;spacingLeft=4;spacingRight=4;overflow=hidden;rotatable=0;points=[[0,0.5],[1,0.5]];portConstraint=eastwest;" vertex="1" parent="reUhdALE0_eWzsfr5-1L-14">
          <mxGeometry y="165" width="480" height="26" as="geometry" />
        </mxCell>
        <mxCell id="reUhdALE0_eWzsfr5-1L-21" value="fFront：车辆前进/静止时采集到数据的队头" style="text;strokeColor=none;fillColor=none;align=left;verticalAlign=top;spacingLeft=4;spacingRight=4;overflow=hidden;rotatable=0;points=[[0,0.5],[1,0.5]];portConstraint=eastwest;" vertex="1" parent="reUhdALE0_eWzsfr5-1L-14">
          <mxGeometry y="191" width="480" height="26" as="geometry" />
        </mxCell>
        <mxCell id="reUhdALE0_eWzsfr5-1L-22" value="fRront：车辆前进/静止时采集到数据的队尾" style="text;strokeColor=none;fillColor=none;align=left;verticalAlign=top;spacingLeft=4;spacingRight=4;overflow=hidden;rotatable=0;points=[[0,0.5],[1,0.5]];portConstraint=eastwest;" vertex="1" parent="reUhdALE0_eWzsfr5-1L-14">
          <mxGeometry y="217" width="480" height="26" as="geometry" />
        </mxCell>
        <mxCell id="reUhdALE0_eWzsfr5-1L-23" value="rFront：车辆后退时采集到数据的队头" style="text;strokeColor=none;fillColor=none;align=left;verticalAlign=top;spacingLeft=4;spacingRight=4;overflow=hidden;rotatable=0;points=[[0,0.5],[1,0.5]];portConstraint=eastwest;" vertex="1" parent="reUhdALE0_eWzsfr5-1L-14">
          <mxGeometry y="243" width="480" height="26" as="geometry" />
        </mxCell>
        <mxCell id="reUhdALE0_eWzsfr5-1L-24" value="rRront：车辆后退时采集到数据的队头" style="text;strokeColor=none;fillColor=none;align=left;verticalAlign=top;spacingLeft=4;spacingRight=4;overflow=hidden;rotatable=0;points=[[0,0.5],[1,0.5]];portConstraint=eastwest;" vertex="1" parent="reUhdALE0_eWzsfr5-1L-14">
          <mxGeometry y="269" width="480" height="26" as="geometry" />
        </mxCell>
        <mxCell id="reUhdALE0_eWzsfr5-1L-25" value="右侧1号超声波数据" style="swimlane;fontStyle=0;childLayout=stackLayout;horizontal=1;startSize=35;horizontalStack=0;resizeParent=1;resizeParentMax=0;resizeLast=0;collapsible=1;marginBottom=0;fontSize=18;fillColor=#A0522D;fontColor=#FFFFFF;" vertex="1" parent="1">
          <mxGeometry x="320" y="1800" width="480" height="295" as="geometry" />
        </mxCell>
        <mxCell id="reUhdALE0_eWzsfr5-1L-26" value="RightRadarCQueueId1[250].x：循环队列/结构体数组成员，x为车辆在全局坐标系下X方向的值" style="text;strokeColor=none;fillColor=none;align=left;verticalAlign=top;spacingLeft=4;spacingRight=4;overflow=hidden;rotatable=0;points=[[0,0.5],[1,0.5]];portConstraint=eastwest;" vertex="1" parent="reUhdALE0_eWzsfr5-1L-25">
          <mxGeometry y="35" width="480" height="26" as="geometry" />
        </mxCell>
        <mxCell id="reUhdALE0_eWzsfr5-1L-27" value="RightRadarCQueueId1[250].y：循环队列/结构体数组成员，y为车辆在全局坐标系下Y方向的值" style="text;strokeColor=none;fillColor=none;align=left;verticalAlign=top;spacingLeft=4;spacingRight=4;overflow=hidden;rotatable=0;points=[[0,0.5],[1,0.5]];portConstraint=eastwest;" vertex="1" parent="reUhdALE0_eWzsfr5-1L-25">
          <mxGeometry y="61" width="480" height="26" as="geometry" />
        </mxCell>
        <mxCell id="reUhdALE0_eWzsfr5-1L-28" value="RightRadarCQueueId1[250].q：循环队列/结构体数组成员，q为车辆在全局坐标系下的航向角" style="text;strokeColor=none;fillColor=none;align=left;verticalAlign=top;spacingLeft=4;spacingRight=4;overflow=hidden;rotatable=0;points=[[0,0.5],[1,0.5]];portConstraint=eastwest;" vertex="1" parent="reUhdALE0_eWzsfr5-1L-25">
          <mxGeometry y="87" width="480" height="26" as="geometry" />
        </mxCell>
        <mxCell id="reUhdALE0_eWzsfr5-1L-29" value="RightRadarCQueueId1[250].dim：循环队列/结构体数组成员，dim为超声波数据" style="text;strokeColor=none;fillColor=none;align=left;verticalAlign=top;spacingLeft=4;spacingRight=4;overflow=hidden;rotatable=0;points=[[0,0.5],[1,0.5]];portConstraint=eastwest;" vertex="1" parent="reUhdALE0_eWzsfr5-1L-25">
          <mxGeometry y="113" width="480" height="26" as="geometry" />
        </mxCell>
        <mxCell id="reUhdALE0_eWzsfr5-1L-30" value="front：循环队列队头(头删)" style="text;strokeColor=none;fillColor=none;align=left;verticalAlign=top;spacingLeft=4;spacingRight=4;overflow=hidden;rotatable=0;points=[[0,0.5],[1,0.5]];portConstraint=eastwest;" vertex="1" parent="reUhdALE0_eWzsfr5-1L-25">
          <mxGeometry y="139" width="480" height="26" as="geometry" />
        </mxCell>
        <mxCell id="reUhdALE0_eWzsfr5-1L-31" value="rear：循环队列队尾(尾添)" style="text;strokeColor=none;fillColor=none;align=left;verticalAlign=top;spacingLeft=4;spacingRight=4;overflow=hidden;rotatable=0;points=[[0,0.5],[1,0.5]];portConstraint=eastwest;" vertex="1" parent="reUhdALE0_eWzsfr5-1L-25">
          <mxGeometry y="165" width="480" height="26" as="geometry" />
        </mxCell>
        <mxCell id="reUhdALE0_eWzsfr5-1L-32" value="fFront：车辆前进/静止时采集到数据的队头" style="text;strokeColor=none;fillColor=none;align=left;verticalAlign=top;spacingLeft=4;spacingRight=4;overflow=hidden;rotatable=0;points=[[0,0.5],[1,0.5]];portConstraint=eastwest;" vertex="1" parent="reUhdALE0_eWzsfr5-1L-25">
          <mxGeometry y="191" width="480" height="26" as="geometry" />
        </mxCell>
        <mxCell id="reUhdALE0_eWzsfr5-1L-33" value="fRront：车辆前进/静止时采集到数据的队尾" style="text;strokeColor=none;fillColor=none;align=left;verticalAlign=top;spacingLeft=4;spacingRight=4;overflow=hidden;rotatable=0;points=[[0,0.5],[1,0.5]];portConstraint=eastwest;" vertex="1" parent="reUhdALE0_eWzsfr5-1L-25">
          <mxGeometry y="217" width="480" height="26" as="geometry" />
        </mxCell>
        <mxCell id="reUhdALE0_eWzsfr5-1L-34" value="rFront：车辆后退时采集到数据的队头" style="text;strokeColor=none;fillColor=none;align=left;verticalAlign=top;spacingLeft=4;spacingRight=4;overflow=hidden;rotatable=0;points=[[0,0.5],[1,0.5]];portConstraint=eastwest;" vertex="1" parent="reUhdALE0_eWzsfr5-1L-25">
          <mxGeometry y="243" width="480" height="26" as="geometry" />
        </mxCell>
        <mxCell id="reUhdALE0_eWzsfr5-1L-35" value="rRront：车辆后退时采集到数据的队头" style="text;strokeColor=none;fillColor=none;align=left;verticalAlign=top;spacingLeft=4;spacingRight=4;overflow=hidden;rotatable=0;points=[[0,0.5],[1,0.5]];portConstraint=eastwest;" vertex="1" parent="reUhdALE0_eWzsfr5-1L-25">
          <mxGeometry y="269" width="480" height="26" as="geometry" />
        </mxCell>
        <mxCell id="reUhdALE0_eWzsfr5-1L-36" value="右侧2号超声波数据" style="swimlane;fontStyle=0;childLayout=stackLayout;horizontal=1;startSize=35;horizontalStack=0;resizeParent=1;resizeParentMax=0;resizeLast=0;collapsible=1;marginBottom=0;fontSize=18;fillColor=#A0522D;fontColor=#FFFFFF;" vertex="1" parent="1">
          <mxGeometry x="320" y="2140" width="480" height="295" as="geometry" />
        </mxCell>
        <mxCell id="reUhdALE0_eWzsfr5-1L-37" value="RightRadarCQueueId2[250].x：循环队列/结构体数组成员，x为车辆在全局坐标系下X方向的值" style="text;strokeColor=none;fillColor=none;align=left;verticalAlign=top;spacingLeft=4;spacingRight=4;overflow=hidden;rotatable=0;points=[[0,0.5],[1,0.5]];portConstraint=eastwest;" vertex="1" parent="reUhdALE0_eWzsfr5-1L-36">
          <mxGeometry y="35" width="480" height="26" as="geometry" />
        </mxCell>
        <mxCell id="reUhdALE0_eWzsfr5-1L-38" value="RightRadarCQueueId2[250].y：循环队列/结构体数组成员，y为车辆在全局坐标系下Y方向的值" style="text;strokeColor=none;fillColor=none;align=left;verticalAlign=top;spacingLeft=4;spacingRight=4;overflow=hidden;rotatable=0;points=[[0,0.5],[1,0.5]];portConstraint=eastwest;" vertex="1" parent="reUhdALE0_eWzsfr5-1L-36">
          <mxGeometry y="61" width="480" height="26" as="geometry" />
        </mxCell>
        <mxCell id="reUhdALE0_eWzsfr5-1L-39" value="RightRadarCQueueId2[250].q：循环队列/结构体数组成员，q为车辆在全局坐标系下的航向角" style="text;strokeColor=none;fillColor=none;align=left;verticalAlign=top;spacingLeft=4;spacingRight=4;overflow=hidden;rotatable=0;points=[[0,0.5],[1,0.5]];portConstraint=eastwest;" vertex="1" parent="reUhdALE0_eWzsfr5-1L-36">
          <mxGeometry y="87" width="480" height="26" as="geometry" />
        </mxCell>
        <mxCell id="reUhdALE0_eWzsfr5-1L-40" value="RightRadarCQueueId2[250].dim：循环队列/结构体数组成员，dim为超声波数据" style="text;strokeColor=none;fillColor=none;align=left;verticalAlign=top;spacingLeft=4;spacingRight=4;overflow=hidden;rotatable=0;points=[[0,0.5],[1,0.5]];portConstraint=eastwest;" vertex="1" parent="reUhdALE0_eWzsfr5-1L-36">
          <mxGeometry y="113" width="480" height="26" as="geometry" />
        </mxCell>
        <mxCell id="reUhdALE0_eWzsfr5-1L-41" value="front：循环队列队头(头删)" style="text;strokeColor=none;fillColor=none;align=left;verticalAlign=top;spacingLeft=4;spacingRight=4;overflow=hidden;rotatable=0;points=[[0,0.5],[1,0.5]];portConstraint=eastwest;" vertex="1" parent="reUhdALE0_eWzsfr5-1L-36">
          <mxGeometry y="139" width="480" height="26" as="geometry" />
        </mxCell>
        <mxCell id="reUhdALE0_eWzsfr5-1L-42" value="rear：循环队列队尾(尾添)" style="text;strokeColor=none;fillColor=none;align=left;verticalAlign=top;spacingLeft=4;spacingRight=4;overflow=hidden;rotatable=0;points=[[0,0.5],[1,0.5]];portConstraint=eastwest;" vertex="1" parent="reUhdALE0_eWzsfr5-1L-36">
          <mxGeometry y="165" width="480" height="26" as="geometry" />
        </mxCell>
        <mxCell id="reUhdALE0_eWzsfr5-1L-43" value="fFront：车辆前进/静止时采集到数据的队头" style="text;strokeColor=none;fillColor=none;align=left;verticalAlign=top;spacingLeft=4;spacingRight=4;overflow=hidden;rotatable=0;points=[[0,0.5],[1,0.5]];portConstraint=eastwest;" vertex="1" parent="reUhdALE0_eWzsfr5-1L-36">
          <mxGeometry y="191" width="480" height="26" as="geometry" />
        </mxCell>
        <mxCell id="reUhdALE0_eWzsfr5-1L-44" value="fRront：车辆前进/静止时采集到数据的队尾" style="text;strokeColor=none;fillColor=none;align=left;verticalAlign=top;spacingLeft=4;spacingRight=4;overflow=hidden;rotatable=0;points=[[0,0.5],[1,0.5]];portConstraint=eastwest;" vertex="1" parent="reUhdALE0_eWzsfr5-1L-36">
          <mxGeometry y="217" width="480" height="26" as="geometry" />
        </mxCell>
        <mxCell id="reUhdALE0_eWzsfr5-1L-45" value="rFront：车辆后退时采集到数据的队头" style="text;strokeColor=none;fillColor=none;align=left;verticalAlign=top;spacingLeft=4;spacingRight=4;overflow=hidden;rotatable=0;points=[[0,0.5],[1,0.5]];portConstraint=eastwest;" vertex="1" parent="reUhdALE0_eWzsfr5-1L-36">
          <mxGeometry y="243" width="480" height="26" as="geometry" />
        </mxCell>
        <mxCell id="reUhdALE0_eWzsfr5-1L-46" value="rRront：车辆后退时采集到数据的队头" style="text;strokeColor=none;fillColor=none;align=left;verticalAlign=top;spacingLeft=4;spacingRight=4;overflow=hidden;rotatable=0;points=[[0,0.5],[1,0.5]];portConstraint=eastwest;" vertex="1" parent="reUhdALE0_eWzsfr5-1L-36">
          <mxGeometry y="269" width="480" height="26" as="geometry" />
        </mxCell>
        <mxCell id="jrK2h-31VooN953HkJox-17" value="视觉检测时本车位置戳" style="swimlane;fontStyle=0;childLayout=stackLayout;horizontal=1;startSize=40;horizontalStack=0;resizeParent=1;resizeParentMax=0;resizeLast=0;collapsible=1;marginBottom=0;fontSize=18;fillColor=#A0522D;strokeColor=#FFFFFF;fontColor=#FFFFFF;" parent="1" vertex="1">
          <mxGeometry x="320" y="185" width="300" height="66" as="geometry" />
        </mxCell>
        <mxCell id="jrK2h-31VooN953HkJox-18" value="视觉探测时本车坐标系与朝向" style="text;strokeColor=#666666;fillColor=#f5f5f5;align=left;verticalAlign=top;spacingLeft=4;spacingRight=4;overflow=hidden;rotatable=0;points=[[0,0.5],[1,0.5]];portConstraint=eastwest;gradientColor=#b3b3b3;" parent="jrK2h-31VooN953HkJox-17" vertex="1">
          <mxGeometry y="40" width="300" height="26" as="geometry" />
        </mxCell>
        <mxCell id="jrK2h-31VooN953HkJox-21" value="当前时刻车辆位置戳" style="swimlane;fontStyle=0;childLayout=stackLayout;horizontal=1;startSize=40;horizontalStack=0;resizeParent=1;resizeParentMax=0;resizeLast=0;collapsible=1;marginBottom=0;fontSize=18;fillColor=#A0522D;strokeColor=#FFFFFF;fontColor=#FFFFFF;" parent="1" vertex="1">
          <mxGeometry x="320" y="275" width="300" height="66" as="geometry" />
        </mxCell>
        <mxCell id="jrK2h-31VooN953HkJox-22" value="视觉探测时本车坐标系与朝向" style="text;strokeColor=#666666;fillColor=#f5f5f5;align=left;verticalAlign=top;spacingLeft=4;spacingRight=4;overflow=hidden;rotatable=0;points=[[0,0.5],[1,0.5]];portConstraint=eastwest;gradientColor=#b3b3b3;" parent="jrK2h-31VooN953HkJox-21" vertex="1">
          <mxGeometry y="40" width="300" height="26" as="geometry" />
        </mxCell>
        <mxCell id="jrK2h-31VooN953HkJox-23" value="触发信号" style="swimlane;fontStyle=0;childLayout=stackLayout;horizontal=1;startSize=40;horizontalStack=0;resizeParent=1;resizeParentMax=0;resizeLast=0;collapsible=1;marginBottom=0;fontSize=18;fillColor=#A0522D;strokeColor=#FFFFFF;fontColor=#FFFFFF;" parent="1" vertex="1">
          <mxGeometry x="320" y="365" width="300" height="66" as="geometry" />
        </mxCell>
        <mxCell id="jrK2h-31VooN953HkJox-24" value="模块启动信号" style="text;strokeColor=#666666;fillColor=#f5f5f5;align=left;verticalAlign=top;spacingLeft=4;spacingRight=4;overflow=hidden;rotatable=0;points=[[0,0.5],[1,0.5]];portConstraint=eastwest;gradientColor=#b3b3b3;" parent="jrK2h-31VooN953HkJox-23" vertex="1">
          <mxGeometry y="40" width="300" height="26" as="geometry" />
        </mxCell>
        <mxCell id="leuu1m-iNAbnX1D4mWZV-41" value="传感器" style="swimlane;fontStyle=0;childLayout=stackLayout;horizontal=1;startSize=35;horizontalStack=0;resizeParent=1;resizeParentMax=0;resizeLast=0;collapsible=1;marginBottom=0;fontSize=18;fillColor=#A0522D;fontColor=#FFFFFF;" parent="1" vertex="1">
          <mxGeometry x="320" y="450" width="300" height="139" as="geometry" />
        </mxCell>
        <mxCell id="leuu1m-iNAbnX1D4mWZV-42" value="左侧1号超声波(靠近车尾)" style="text;strokeColor=none;fillColor=none;align=left;verticalAlign=top;spacingLeft=4;spacingRight=4;overflow=hidden;rotatable=0;points=[[0,0.5],[1,0.5]];portConstraint=eastwest;" parent="leuu1m-iNAbnX1D4mWZV-41" vertex="1">
          <mxGeometry y="35" width="300" height="26" as="geometry" />
        </mxCell>
        <mxCell id="leuu1m-iNAbnX1D4mWZV-43" value="左侧2号超声波(靠近车头)" style="text;strokeColor=none;fillColor=none;align=left;verticalAlign=top;spacingLeft=4;spacingRight=4;overflow=hidden;rotatable=0;points=[[0,0.5],[1,0.5]];portConstraint=eastwest;" parent="leuu1m-iNAbnX1D4mWZV-41" vertex="1">
          <mxGeometry y="61" width="300" height="26" as="geometry" />
        </mxCell>
        <mxCell id="leuu1m-iNAbnX1D4mWZV-45" value="右侧1号超声波(靠近车尾)" style="text;strokeColor=none;fillColor=none;align=left;verticalAlign=top;spacingLeft=4;spacingRight=4;overflow=hidden;rotatable=0;points=[[0,0.5],[1,0.5]];portConstraint=eastwest;" parent="leuu1m-iNAbnX1D4mWZV-41" vertex="1">
          <mxGeometry y="87" width="300" height="26" as="geometry" />
        </mxCell>
        <mxCell id="leuu1m-iNAbnX1D4mWZV-44" value="右侧2号超声波(靠近车头)" style="text;strokeColor=none;fillColor=none;align=left;verticalAlign=top;spacingLeft=4;spacingRight=4;overflow=hidden;rotatable=0;points=[[0,0.5],[1,0.5]];portConstraint=eastwest;" parent="leuu1m-iNAbnX1D4mWZV-41" vertex="1">
          <mxGeometry y="113" width="300" height="26" as="geometry" />
        </mxCell>
        <mxCell id="leuu1m-iNAbnX1D4mWZV-49" value="&lt;b&gt;输入&lt;/b&gt;" style="text;html=1;align=center;verticalAlign=middle;whiteSpace=wrap;rounded=0;fontSize=18;" parent="1" vertex="1">
          <mxGeometry x="415" y="120" width="90" height="50" as="geometry" />
        </mxCell>
        <mxCell id="reUhdALE0_eWzsfr5-1L-58" value="本地库位LocalParkingSport[12]" style="swimlane;fontStyle=0;childLayout=stackLayout;horizontal=1;startSize=40;horizontalStack=0;resizeParent=1;resizeParentMax=0;resizeLast=0;collapsible=1;marginBottom=0;fontSize=18;fillColor=#a0522d;strokeColor=#6D1F00;fontColor=#ffffff;" vertex="1" parent="1">
          <mxGeometry x="320" y="630" width="480" height="456" as="geometry" />
        </mxCell>
        <mxCell id="reUhdALE0_eWzsfr5-1L-59" value="两角点" style="text;strokeColor=#666666;fillColor=#f5f5f5;align=left;verticalAlign=top;spacingLeft=4;spacingRight=4;overflow=hidden;rotatable=0;points=[[0,0.5],[1,0.5]];portConstraint=eastwest;gradientColor=#b3b3b3;" vertex="1" parent="reUhdALE0_eWzsfr5-1L-58">
          <mxGeometry y="40" width="480" height="26" as="geometry" />
        </mxCell>
        <mxCell id="reUhdALE0_eWzsfr5-1L-60" value="中心点(质心)" style="text;strokeColor=#666666;fillColor=#f5f5f5;align=left;verticalAlign=top;spacingLeft=4;spacingRight=4;overflow=hidden;rotatable=0;points=[[0,0.5],[1,0.5]];portConstraint=eastwest;gradientColor=#b3b3b3;" vertex="1" parent="reUhdALE0_eWzsfr5-1L-58">
          <mxGeometry y="66" width="480" height="26" as="geometry" />
        </mxCell>
        <mxCell id="reUhdALE0_eWzsfr5-1L-61" value="库位方位角" style="text;strokeColor=#666666;fillColor=#f5f5f5;align=left;verticalAlign=top;spacingLeft=4;spacingRight=4;overflow=hidden;rotatable=0;points=[[0,0.5],[1,0.5]];portConstraint=eastwest;gradientColor=#b3b3b3;" vertex="1" parent="reUhdALE0_eWzsfr5-1L-58">
          <mxGeometry y="92" width="480" height="26" as="geometry" />
        </mxCell>
        <mxCell id="reUhdALE0_eWzsfr5-1L-62" value="尺寸(宽度和深度)" style="text;strokeColor=#666666;fillColor=#f5f5f5;align=left;verticalAlign=top;spacingLeft=4;spacingRight=4;overflow=hidden;rotatable=0;points=[[0,0.5],[1,0.5]];portConstraint=eastwest;gradientColor=#b3b3b3;" vertex="1" parent="reUhdALE0_eWzsfr5-1L-58">
          <mxGeometry y="118" width="480" height="26" as="geometry" />
        </mxCell>
        <mxCell id="reUhdALE0_eWzsfr5-1L-63" value="库位类型(平行/垂直/斜)" style="text;strokeColor=#666666;fillColor=#f5f5f5;align=left;verticalAlign=top;spacingLeft=4;spacingRight=4;overflow=hidden;rotatable=0;points=[[0,0.5],[1,0.5]];portConstraint=eastwest;gradientColor=#b3b3b3;" vertex="1" parent="reUhdALE0_eWzsfr5-1L-58">
          <mxGeometry y="144" width="480" height="26" as="geometry" />
        </mxCell>
        <mxCell id="reUhdALE0_eWzsfr5-1L-64" value="库位余车辆的位置关系(左/右)" style="text;strokeColor=#666666;fillColor=#f5f5f5;align=left;verticalAlign=top;spacingLeft=4;spacingRight=4;overflow=hidden;rotatable=0;points=[[0,0.5],[1,0.5]];portConstraint=eastwest;gradientColor=#b3b3b3;" vertex="1" parent="reUhdALE0_eWzsfr5-1L-58">
          <mxGeometry y="170" width="480" height="26" as="geometry" />
        </mxCell>
        <mxCell id="reUhdALE0_eWzsfr5-1L-65" value="视觉测距的精度(可靠性)" style="text;strokeColor=#666666;fillColor=#f5f5f5;align=left;verticalAlign=top;spacingLeft=4;spacingRight=4;overflow=hidden;rotatable=0;points=[[0,0.5],[1,0.5]];portConstraint=eastwest;gradientColor=#b3b3b3;" vertex="1" parent="reUhdALE0_eWzsfr5-1L-58">
          <mxGeometry y="196" width="480" height="26" as="geometry" />
        </mxCell>
        <mxCell id="reUhdALE0_eWzsfr5-1L-66" value="是否有轮挡" style="text;strokeColor=#666666;fillColor=#f5f5f5;align=left;verticalAlign=top;spacingLeft=4;spacingRight=4;overflow=hidden;rotatable=0;points=[[0,0.5],[1,0.5]];portConstraint=eastwest;gradientColor=#b3b3b3;" vertex="1" parent="reUhdALE0_eWzsfr5-1L-58">
          <mxGeometry y="222" width="480" height="26" as="geometry" />
        </mxCell>
        <mxCell id="reUhdALE0_eWzsfr5-1L-67" value="轮挡在视觉探测位置戳坐标系下的坐标" style="text;strokeColor=#666666;fillColor=#f5f5f5;align=left;verticalAlign=top;spacingLeft=4;spacingRight=4;overflow=hidden;rotatable=0;points=[[0,0.5],[1,0.5]];portConstraint=eastwest;gradientColor=#b3b3b3;" vertex="1" parent="reUhdALE0_eWzsfr5-1L-58">
          <mxGeometry y="248" width="480" height="26" as="geometry" />
        </mxCell>
        <mxCell id="reUhdALE0_eWzsfr5-1L-68" value="重叠次数" style="text;strokeColor=#666666;fillColor=#f5f5f5;align=left;verticalAlign=top;spacingLeft=4;spacingRight=4;overflow=hidden;rotatable=0;points=[[0,0.5],[1,0.5]];portConstraint=eastwest;gradientColor=#b3b3b3;" vertex="1" parent="reUhdALE0_eWzsfr5-1L-58">
          <mxGeometry y="274" width="480" height="26" as="geometry" />
        </mxCell>
        <mxCell id="reUhdALE0_eWzsfr5-1L-69" value="歧义次数" style="text;strokeColor=#666666;fillColor=#f5f5f5;align=left;verticalAlign=top;spacingLeft=4;spacingRight=4;overflow=hidden;rotatable=0;points=[[0,0.5],[1,0.5]];portConstraint=eastwest;gradientColor=#b3b3b3;" vertex="1" parent="reUhdALE0_eWzsfr5-1L-58">
          <mxGeometry y="300" width="480" height="26" as="geometry" />
        </mxCell>
        <mxCell id="reUhdALE0_eWzsfr5-1L-72" value="ObjType：是否有障碍物(车辆、雪糕筒)，0没有障碍物，1有障碍物" style="text;strokeColor=#666666;fillColor=#f5f5f5;align=left;verticalAlign=top;spacingLeft=4;spacingRight=4;overflow=hidden;rotatable=0;points=[[0,0.5],[1,0.5]];portConstraint=eastwest;gradientColor=#b3b3b3;" vertex="1" parent="reUhdALE0_eWzsfr5-1L-58">
          <mxGeometry y="326" width="480" height="26" as="geometry" />
        </mxCell>
        <mxCell id="reUhdALE0_eWzsfr5-1L-75" value="LeftSensorId1Flags：0-左侧1号雷达没有对该库位进行障碍物检测，1-有进行" style="text;strokeColor=#666666;fillColor=#f5f5f5;align=left;verticalAlign=top;spacingLeft=4;spacingRight=4;overflow=hidden;rotatable=0;points=[[0,0.5],[1,0.5]];portConstraint=eastwest;gradientColor=#b3b3b3;" vertex="1" parent="reUhdALE0_eWzsfr5-1L-58">
          <mxGeometry y="352" width="480" height="26" as="geometry" />
        </mxCell>
        <mxCell id="reUhdALE0_eWzsfr5-1L-70" value="LeftSensorId2Flags：0-左侧2号雷达没有对该库位进行障碍物检测，1-有进行" style="text;strokeColor=#666666;fillColor=#f5f5f5;align=left;verticalAlign=top;spacingLeft=4;spacingRight=4;overflow=hidden;rotatable=0;points=[[0,0.5],[1,0.5]];portConstraint=eastwest;gradientColor=#b3b3b3;" vertex="1" parent="reUhdALE0_eWzsfr5-1L-58">
          <mxGeometry y="378" width="480" height="26" as="geometry" />
        </mxCell>
        <mxCell id="reUhdALE0_eWzsfr5-1L-73" value="RightSensorId1Flags：0-右侧1号雷达没有对该库位进行障碍物检测，1-有进行" style="text;strokeColor=#666666;fillColor=#f5f5f5;align=left;verticalAlign=top;spacingLeft=4;spacingRight=4;overflow=hidden;rotatable=0;points=[[0,0.5],[1,0.5]];portConstraint=eastwest;gradientColor=#b3b3b3;" vertex="1" parent="reUhdALE0_eWzsfr5-1L-58">
          <mxGeometry y="404" width="480" height="26" as="geometry" />
        </mxCell>
        <mxCell id="reUhdALE0_eWzsfr5-1L-74" value="RightSensorId2Flags：0-右侧2号雷达没有对该库位进行障碍物检测，1-有进行" style="text;strokeColor=#666666;fillColor=#f5f5f5;align=left;verticalAlign=top;spacingLeft=4;spacingRight=4;overflow=hidden;rotatable=0;points=[[0,0.5],[1,0.5]];portConstraint=eastwest;gradientColor=#b3b3b3;" vertex="1" parent="reUhdALE0_eWzsfr5-1L-58">
          <mxGeometry y="430" width="480" height="26" as="geometry" />
        </mxCell>
      </root>
    </mxGraphModel>
  </diagram>
</mxfile>
